# xmcd
#
# Track frame offsets: 
#        150
#        17720
#        30000
#        47200
#        65385
#        73033
#        87613
#        121490
#        135553
#
# Disc length: 2135 seconds
#
# Revision: 2
# Processed by: cddbd v1.5.2PL0 Copyright (c) Steve Scherf et al.
# Submitted via: ExactAudioCopyFreeDBPlugin 1.0
#
DISCID=76085509
DTITLE=Marvin Gaye - What's Going On
DYEAR=1971
DGENRE=Soul
TTITLE0=What's Going On
TTITLE1=What's Happening Brother
TTITLE2=Flyin' High (In the Friendly Sky)
TTITLE3=Save the Children
TTITLE4=God Is Love
TTITLE5=Mercy Mercy Me (The Ecology)
TTITLE6=Right On
TTITLE7=Wholy Holy
TTITLE8=Inner City Blues (Make Me Wanna Holler)
EXTD=YEAR: 1971
EXTT0=
EXTT1=
EXTT2=
EXTT3=
EXTT4=
EXTT5=
EXTT6=
EXTT7=
EXTT8=
PLAYORDER=
